<svg width="12" height="12" viewBox="0 0 12 12" fill="none" xmlns="http://www.w3.org/2000/svg">
<path d="M6 0C7.08854 0 8.09245 0.268229 9.01172 0.804688C9.93099 1.34115 10.6589 2.06901 11.1953 2.98828C11.7318 3.90755 12 4.91146 12 6C12 7.08854 11.7318 8.09245 11.1953 9.01172C10.6589 9.93099 9.93099 10.6589 9.01172 11.1953C8.09245 11.7318 7.08854 12 6 12C4.91146 12 3.90755 11.7318 2.98828 11.1953C2.06901 10.6589 1.34115 9.93099 0.804688 9.01172C0.268229 8.09245 0 7.08854 0 6C0 4.91146 0.268229 3.90755 0.804688 2.98828C1.34115 2.06901 2.06901 1.34115 2.98828 0.804688C3.90755 0.268229 4.91146 0 6 0ZM7 9.74219V8.25781C7 8.1849 6.97656 8.1237 6.92969 8.07422C6.88281 8.02474 6.82552 8 6.75781 8H5.25781C5.1901 8 5.13021 8.02604 5.07812 8.07812C5.02604 8.13021 5 8.1901 5 8.25781V9.74219C5 9.8099 5.02604 9.86979 5.07812 9.92188C5.13021 9.97396 5.1901 10 5.25781 10H6.75781C6.82552 10 6.88281 9.97526 6.92969 9.92578C6.97656 9.8763 7 9.8151 7 9.74219ZM6.98438 7.05469L7.125 2.20312C7.125 2.14062 7.09896 2.09375 7.04688 2.0625C6.99479 2.02083 6.93229 2 6.85938 2H5.14062C5.06771 2 5.00521 2.02083 4.95312 2.0625C4.90104 2.09375 4.875 2.14062 4.875 2.20312L5.00781 7.05469C5.00781 7.10677 5.03385 7.15234 5.08594 7.19141C5.13802 7.23047 5.20052 7.25 5.27344 7.25H6.71875C6.79167 7.25 6.85286 7.23047 6.90234 7.19141C6.95182 7.15234 6.97917 7.10677 6.98438 7.05469Z" fill="#D13C3C"/>
</svg>
