<svg width="20" height="16" viewBox="0 0 20 16" fill="none" xmlns="http://www.w3.org/2000/svg">
<path d="M3.68775 15.4231C3.68775 15.7416 3.94589 15.9997 4.26434 15.9997H15.3635C15.682 15.9997 15.9401 15.7416 15.9401 15.4231L16.0984 12.8066H3.51932L3.68775 15.4231Z" fill="#9994B5"/>
<path d="M19.4681 3.2277C19.4681 2.14967 18.591 1.27275 17.5131 1.27275C16.4351 1.27275 15.5582 2.14967 15.5582 3.2277C15.5582 3.85271 15.8532 4.40955 16.3109 4.7678L12.6423 7.43673L10.555 3.70507C11.1975 3.3844 11.64 2.72047 11.64 1.95495C11.64 0.876919 10.7631 0 9.68503 0C8.607 0 7.73008 0.876919 7.73008 1.95495C7.73008 2.72983 8.18309 3.40074 8.83826 3.71695L6.91183 7.44074L3.1472 4.63442C3.61061 4.27661 3.91004 3.71606 3.91004 3.0866C3.91004 2.00857 3.03312 1.13165 1.9551 1.13165C0.876919 1.13165 0 2.00857 0 3.0866C0 4.00585 0.637935 4.7785 1.49421 4.98629L3.22072 11.6533H16.3807L17.9795 5.12606C18.833 4.91633 19.4681 4.14502 19.4681 3.2277Z" fill="#9994B5"/>
</svg>
