<svg width="80" height="80" viewBox="0 0 80 80" fill="none" xmlns="http://www.w3.org/2000/svg">
<path d="M40 0C17.9063 0 0 17.9065 0 40.0003C0 62.0937 17.9063 80 40 80C62.0937 80 80 62.0937 80 40.0003C80 17.9065 62.0937 0 40 0ZM40 76.8C19.7092 76.8 3.2 60.2906 3.2 40.0003C3.2 19.7096 19.7092 3.2 40 3.2C60.2906 3.2 76.8 19.7094 76.8 40.0003C76.8 60.2906 60.2906 76.8 40 76.8Z" fill="#FF00B1"/>
<path d="M58.0794 24.1084L55.8169 21.8457L39.9779 37.6849L24.214 21.9209L21.9514 24.1834L37.7156 39.9475L21.9514 55.7125L24.214 57.975L39.9779 42.2091L55.8169 58.0502L58.0794 55.7874L42.2404 39.9475L58.0794 24.1084Z" fill="#FF00B1"/>
</svg>
