<svg width="96" height="80" viewBox="0 0 96 80" fill="none" xmlns="http://www.w3.org/2000/svg">
<path d="M46.6133 60.1511L40.4331 49.4409H28.9758L46.6091 80.0001L64.2423 49.4409H52.7937L46.6133 60.1511Z" fill="#C90F91"/>
<path d="M17.5882 9.84846H75.6382L71.4694 17.0717H82.9182L92.7692 0H0.448853L10.2997 17.0717H21.7569L17.5882 9.84846Z" fill="#C90F91"/>
<path d="M92.1929 21.188H70.0743H69.0739V22.189V26.9559V27.9592H70.0743H77.4787V44.3211V45.3244H78.4792H83.7878H84.7883V44.3211V27.9592H92.1929H93.1934V26.9559V22.189V21.188H92.1929Z" fill="#C90F91"/>
<path d="M50.7862 21.188H49.7858V22.189V26.9559V44.3211V45.3244H50.7862H56.0946H57.0953V44.3211V37.7654H65.0443H66.0448V36.7621V31.9953V30.9942H65.0443H57.0953V27.9592H67.4611H68.4616V26.9559V22.189V21.188H67.4611H50.7862Z" fill="#C90F91"/>
<path d="M41.8178 21.188H40.8258V33.0513C40.8258 36.0609 38.7149 38.418 36.0069 38.418C33.2987 38.418 31.1521 36.0609 31.1521 33.0513V21.188H23.7434V33.0513C23.7434 36.7009 25.0099 40.0019 27.2999 42.3442C29.5458 44.638 32.638 45.9009 36.0069 45.9009C39.3756 45.9009 42.4446 44.6337 44.6862 42.3421C46.9765 39.9978 48.2386 36.6967 48.2386 33.0491V21.188H41.8178Z" fill="#C90F91"/>
<path d="M11.5072 21.188H0.0246582V45.3244H11.5072C14.709 45.3159 17.7768 44.0371 20.0374 41.7683C22.298 39.4996 23.5671 36.426 23.566 33.2223C23.566 26.2484 18.4938 21.188 11.5072 21.188ZM11.9969 38.0167H7.3342V28.5126H12.0159C14.3546 28.5126 16.2564 30.6245 16.2564 33.2307C16.2564 36.1159 14.095 37.9217 11.9969 38.0167Z" fill="#C90F91"/>
<path d="M49.2471 60.1511L43.0667 49.4409H31.6096L49.2427 80.0001L66.876 49.4409H55.4273L49.2471 60.1511Z" fill="#5CF5FF"/>
<path d="M20.2221 9.84846H78.272L74.1033 17.0717H85.5521L95.4028 0H3.08264L12.9335 17.0717H24.3908L20.2221 9.84846Z" fill="#5CF5FF"/>
<path d="M94.8269 21.188H72.7081H71.7076V22.189V26.9559V27.9592H72.7081H80.1127V44.3211V45.3244H81.1132H86.4218H87.4223V44.3211V27.9592H94.8269H95.8273V26.9559V22.189V21.188H94.8269Z" fill="#5CF5FF"/>
<path d="M53.42 21.188H52.4196V22.189V26.9559V44.3211V45.3244H53.42H58.7286H59.7291V44.3211V37.7654H67.6783H68.6787V36.7621V31.9953V30.9942H67.6783H59.7291V27.9592H70.0951H71.0956V26.9559V22.189V21.188H70.0951H53.42Z" fill="#5CF5FF"/>
<path d="M44.4515 21.188H43.4595V33.0513C43.4595 36.0609 41.3486 38.418 38.6406 38.418C35.9324 38.418 33.7859 36.0609 33.7859 33.0513V21.188H26.377V33.0513C26.377 36.7009 27.6434 40.0019 29.9337 42.3442C32.1796 44.638 35.2717 45.9009 38.6406 45.9009C42.0093 45.9009 45.0784 44.6337 47.32 42.3421C49.6102 39.9978 50.8723 36.6967 50.8723 33.0491V21.188H44.4515Z" fill="#5CF5FF"/>
<path d="M14.141 21.188H2.65845V45.3244H14.141C17.3428 45.3159 20.4105 44.0371 22.6713 41.7683C24.9318 39.4996 26.2008 36.426 26.1996 33.2223C26.1996 26.2484 21.1275 21.188 14.141 21.188ZM14.6307 38.0167H9.96799V28.5126H14.6497C16.9884 28.5126 18.8901 30.6245 18.8901 33.2307C18.8901 36.1159 16.7287 37.9217 14.6307 38.0167Z" fill="#5CF5FF"/>
<path d="M47.9303 60.1511L41.7501 49.4409H30.2928L47.9261 80.0001L65.5595 49.4409H54.1107L47.9303 60.1511Z" fill="white"/>
<path d="M18.9051 9.84846H76.955L72.7863 17.0717H84.2351L94.086 0H1.76575L11.6166 17.0717H23.0738L18.9051 9.84846Z" fill="white"/>
<path d="M93.5098 21.188H71.3912H70.3907V22.189V26.9559V27.9592H71.3912H78.7958V44.3211V45.3244H79.7963H85.1047H86.1054V44.3211V27.9592H93.5098H94.5103V26.9559V22.189V21.188H93.5098Z" fill="white"/>
<path d="M52.1031 21.188H51.1027V22.189V26.9559V44.3211V45.3244H52.1031H57.4117H58.4122V44.3211V37.7654H66.3614H67.3619V36.7621V31.9953V30.9942H66.3614H58.4122V27.9592H68.778H69.7785V26.9559V22.189V21.188H68.778H52.1031Z" fill="white"/>
<path d="M43.1348 21.188H42.1428V33.0513C42.1428 36.0609 40.0321 38.418 37.3239 38.418C34.6159 38.418 32.4692 36.0609 32.4692 33.0513V21.188H25.0604V33.0513C25.0604 36.7009 26.3269 40.0019 28.6171 42.3442C30.8629 44.638 33.9552 45.9009 37.3239 45.9009C40.6928 45.9009 43.7616 44.6337 46.0034 42.3421C48.2935 39.9978 49.5558 36.6967 49.5558 33.0491V21.188H43.1348Z" fill="white"/>
<path d="M12.8242 21.188H1.34167V45.3244H12.8242C16.026 45.3159 19.0938 44.0371 21.3544 41.7683C23.6152 39.4996 24.8841 36.426 24.8829 33.2223C24.8829 26.2484 19.8109 21.188 12.8242 21.188ZM13.3139 38.0167H8.65122V28.5126H13.3329C15.6716 28.5126 17.5734 30.6245 17.5734 33.2307C17.5734 36.1159 15.412 37.9217 13.3139 38.0167Z" fill="white"/>
</svg>
