<svg width="16" height="16" viewBox="0 0 16 16" fill="none" xmlns="http://www.w3.org/2000/svg">
<path d="M8 0C3.61739 0 0 3.61739 0 8C0 9.66957 0.486957 11.2 1.3913 12.5217L0.486957 15.2348C0.417391 15.3739 0.486957 15.513 0.556522 15.5826C0.695652 15.6522 0.834783 15.7217 0.973913 15.6522L3.75652 14.7478C5.0087 15.5826 6.53913 16 8 16C12.3826 16 16 12.3826 16 8C16 3.61739 12.3826 0 8 0ZM12.8 11.2696C12.5913 11.8957 11.7565 12.4522 11.0609 12.5913C10.9217 12.5913 10.7826 12.6609 10.5739 12.6609C10.0174 12.6609 9.32174 12.4522 8.2087 12.0348C6.81739 11.4783 5.42609 10.2261 4.31304 8.62609L4.24348 8.55652C3.82609 8 3.2 7.02609 3.2 5.98261C3.2 4.8 3.82609 4.17391 4.03478 3.89565C4.31304 3.61739 4.66087 3.47826 5.07826 3.47826C5.14783 3.47826 5.21739 3.47826 5.28696 3.47826H5.35652C5.70435 3.47826 5.91304 3.61739 6.12174 4.03478L6.26087 4.31304C6.46957 4.8 6.74783 5.56522 6.81739 5.70435C6.95652 5.98261 6.95652 6.1913 6.81739 6.4C6.74783 6.53913 6.67826 6.67826 6.53913 6.81739C6.46956 6.88696 6.4 6.95652 6.4 7.02609C6.33043 7.09565 6.26087 7.16522 6.1913 7.23478C6.1913 7.30435 6.1913 7.30435 6.1913 7.30435C6.4 7.65217 6.81739 8.27826 7.37391 8.76522C8.13913 9.46087 8.69565 9.66957 8.97391 9.8087H9.04348C9.11304 9.8087 9.18261 9.87826 9.18261 9.8087C9.32174 9.66957 9.46087 9.3913 9.66957 9.18261L9.73913 9.11304C9.94783 8.83478 10.2261 8.76522 10.3652 8.76522C10.4348 8.76522 10.5739 8.76522 10.6435 8.83478C10.713 8.83478 10.8522 8.90435 12.1739 9.6L12.313 9.66957C12.5217 9.73913 12.6609 9.8087 12.7304 10.0174C13.0087 10.1565 12.9391 10.7826 12.8 11.2696Z" fill="#8B90A1"/>
</svg>
